<?xml version="1.0" encoding="iso-8859-1"?>
<!-- Generator: Adobe Illustrator 19.0.0, SVG Export Plug-In . SVG Version: 6.00 Build 0)  -->
<svg version="1.1" id="Layer_1" xmlns="http://www.w3.org/2000/svg" xmlns:xlink="http://www.w3.org/1999/xlink" x="0px" y="0px"
	 viewBox="0 0 511.999 511.999" style="enable-background:new 0 0 511.999 511.999;" xml:space="preserve">
<g>
	<g>
		<g>
			<path d="M380.103,232.191c-8.445,0-16.705,0.808-24.713,2.332c20.234-23.189,32.508-53.493,32.508-86.613
				c0-72.729-59.17-131.898-131.898-131.898S124.102,75.181,124.102,147.91c0,33.12,12.274,63.425,32.508,86.613
				c-8.008-1.525-16.267-2.332-24.713-2.332C59.169,232.191,0,291.36,0,364.088c0,72.729,59.169,131.898,131.897,131.898
				c57.054,0,105.757-36.415,124.103-87.222c18.346,50.807,67.05,87.222,124.103,87.222c72.729,0,131.897-59.169,131.897-131.898
				C512,291.36,452.831,232.191,380.103,232.191z M139.691,147.91c0-64.133,52.175-116.308,116.308-116.308
				c64.133,0,116.308,52.175,116.308,116.308S320.132,264.218,256,264.218S139.691,212.042,139.691,147.91z M131.897,480.397
				c-64.132,0-116.307-52.176-116.307-116.309S67.765,247.78,131.897,247.78c64.133,0,116.308,52.175,116.308,116.308
				S196.029,480.397,131.897,480.397z M231.287,277.476c8.008,1.524,16.267,2.332,24.713,2.332
				c8.445-0.001,16.705-0.809,24.713-2.332c-10.657,12.214-19.104,26.403-24.713,41.937
				C250.39,303.879,241.944,289.69,231.287,277.476z M380.103,480.397c-64.133,0-116.308-52.175-116.308-116.308
				s52.175-116.308,116.308-116.308c64.132,0,116.307,52.175,116.307,116.308C496.41,428.221,444.235,480.397,380.103,480.397z"/>
			<path d="M131.897,256.211c-59.483,0-107.877,48.394-107.877,107.877c0,59.484,48.393,107.878,107.877,107.878
				c59.484,0,107.878-48.393,107.878-107.878C239.775,304.605,191.381,256.211,131.897,256.211z M64.053,426.582
				c-15.165-16.451-24.443-38.408-24.443-62.493c0-24.085,9.278-46.041,24.443-62.493V426.582z M104.086,452.092
				c-8.787-2.783-17.007-6.85-24.445-11.977V288.064c7.436-5.128,15.657-9.194,24.445-11.977V452.092z M144.119,455.566
				c-4,0.531-8.079,0.811-12.222,0.811c-4.143,0-8.221-0.28-12.221-0.811V272.611c3.999-0.531,8.079-0.811,12.221-0.811
				c4.143,0,8.222,0.28,12.222,0.811V455.566z M184.151,440.115c-7.436,5.127-15.656,9.194-24.442,11.977V276.087
				c8.787,2.783,17.006,6.85,24.442,11.977V440.115z M199.741,426.582V301.596c15.166,16.451,24.445,38.408,24.445,62.493
				C224.185,388.174,214.906,410.131,199.741,426.582z"/>
			<path d="M380.103,256.211c-59.484,0-107.878,48.394-107.878,107.877c0,59.484,48.393,107.878,107.878,107.878
				c59.483,0,107.877-48.393,107.877-107.878C487.979,304.605,439.586,256.211,380.103,256.211z M312.258,426.582
				c-15.166-16.451-24.445-38.408-24.445-62.494c0-24.086,9.279-46.042,24.445-62.493V426.582z M352.291,452.092
				c-8.787-2.783-17.006-6.85-24.442-11.977V288.064c7.436-5.127,15.656-9.194,24.442-11.977V452.092z M392.324,455.566
				c-4,0.531-8.079,0.811-12.221,0.811c-4.143,0-8.222-0.28-12.222-0.811V272.611c4-0.531,8.079-0.811,12.222-0.811
				c4.143,0,8.221,0.28,12.221,0.811V455.566z M432.358,440.115c-7.436,5.128-15.657,9.194-24.445,11.977V276.086
				c8.787,2.783,17.007,6.85,24.445,11.977V440.115z M447.947,426.582V301.597c15.165,16.451,24.444,38.408,24.444,62.493
				C472.39,388.174,463.112,410.131,447.947,426.582z"/>
			<path d="M256,255.788c59.484,0,107.878-48.394,107.878-107.878c0-59.484-48.394-107.877-107.878-107.877
				S148.122,88.426,148.122,147.91S196.516,255.788,256,255.788z M323.845,85.417c15.166,16.451,24.445,38.408,24.445,62.493
				c0,24.086-9.279,46.042-24.445,62.494V85.417z M283.811,59.907c8.787,2.783,17.006,6.85,24.442,11.977v152.051
				c-7.436,5.127-15.656,9.194-24.442,11.977V59.907z M243.778,56.433c4-0.531,8.079-0.811,12.222-0.811
				c4.144,0,8.222,0.28,12.222,0.811v182.955c-4,0.531-8.079,0.811-12.222,0.811c-4.144,0-8.222-0.28-12.222-0.811V56.433z
				 M203.745,71.884c7.436-5.127,15.656-9.194,24.443-11.977v176.005c-8.787-2.783-17.006-6.85-24.443-11.977V71.884z
				 M188.155,85.417v124.986c-15.166-16.451-24.445-38.408-24.445-62.494C163.712,123.824,172.99,101.867,188.155,85.417z"/>
		</g>
	</g>
</g>
<g>
</g>
<g>
</g>
<g>
</g>
<g>
</g>
<g>
</g>
<g>
</g>
<g>
</g>
<g>
</g>
<g>
</g>
<g>
</g>
<g>
</g>
<g>
</g>
<g>
</g>
<g>
</g>
<g>
</g>
</svg>
