<?xml version="1.0" encoding="iso-8859-1"?>
<!-- Generator: Adobe Illustrator 16.0.0, SVG Export Plug-In . SVG Version: 6.00 Build 0)  -->
<!DOCTYPE svg PUBLIC "-//W3C//DTD SVG 1.1//EN" "http://www.w3.org/Graphics/SVG/1.1/DTD/svg11.dtd">
<svg version="1.1" id="Capa_1" xmlns="http://www.w3.org/2000/svg" xmlns:xlink="http://www.w3.org/1999/xlink" x="0px" y="0px"
	 width="30.158px" height="30.158px" viewBox="0 0 30.158 30.158" style="enable-background:new 0 0 30.158 30.158;"
	 xml:space="preserve">
<g>
	<g>
		<g id="Icons_3_">
			<g>
				<path d="M20.632,18.791H14.39v-3.318l0.32-0.14c0.248-0.108,0.369-0.391,0.275-0.645L10.183,1.622
					c-0.235-0.64-0.724-1.155-1.352-1.423C8.204-0.069,7.495-0.066,6.87,0.206S5.76,0.997,5.53,1.639s-0.187,1.35,0.122,1.958
					l6.303,12.413c0.086,0.17,0.257,0.269,0.437,0.274v2.507h-1.614c-0.468,0-0.848,0.379-0.848,0.848v5.657
					c0,0.468,0.379,0.848,0.848,0.848h5.973c0.469,0,0.849-0.379,0.849-0.848v-3.505h3.035c0.628,0,1.139,0.511,1.139,1.139v1.02
					c0,0.468,0.379,0.848,0.849,0.848h1.305c0.469,0,0.848-0.379,0.848-0.848v-1.02C24.771,20.648,22.913,18.791,20.632,18.791z"/>
				<path d="M23.422,25.72c-0.674,0-1.22,2.546-1.22,3.221c0,0.673,0.546,1.218,1.22,1.218c0.673,0,1.219-0.546,1.219-1.219
					C24.641,28.265,24.095,25.72,23.422,25.72z"/>
			</g>
		</g>
	</g>
</g>
<g>
</g>
<g>
</g>
<g>
</g>
<g>
</g>
<g>
</g>
<g>
</g>
<g>
</g>
<g>
</g>
<g>
</g>
<g>
</g>
<g>
</g>
<g>
</g>
<g>
</g>
<g>
</g>
<g>
</g>
</svg>
